<mxfile host="app.diagrams.net" modified="2023-11-20T17:36:12.438Z" agent="Mozilla/5.0 (Windows NT 10.0; Win64; x64) AppleWebKit/537.36 (KHTML, like Gecko) Chrome/119.0.0.0 Safari/537.36 Edg/119.0.0.0" etag="Ttmok-7GUtlclQixbkye" version="22.1.3" type="github">
  <diagram name="Page-1" id="xmTDREqHdEa40JaXFlae">
    <mxGraphModel dx="907" dy="686" grid="1" gridSize="10" guides="1" tooltips="1" connect="1" arrows="1" fold="1" page="1" pageScale="1" pageWidth="850" pageHeight="1100" math="0" shadow="0">
      <root>
        <mxCell id="0" />
        <mxCell id="1" parent="0" />
        <mxCell id="b10XOHRk4VMyjC0qILiY-2" value="src" style="swimlane;whiteSpace=wrap;html=1;" vertex="1" parent="1">
          <mxGeometry x="20" y="40" width="710" height="4290" as="geometry" />
        </mxCell>
        <mxCell id="b10XOHRk4VMyjC0qILiY-91" value="actions" style="swimlane;fillColor=#f5f5f5;fontColor=#333333;strokeColor=#666666;" vertex="1" parent="b10XOHRk4VMyjC0qILiY-2">
          <mxGeometry x="20" y="40" width="570" height="240" as="geometry" />
        </mxCell>
        <mxCell id="b10XOHRk4VMyjC0qILiY-92" value="ActionTypes.js" style="label;fontStyle=0;strokeColor=none;fillColor=none;align=left;verticalAlign=top;overflow=hidden;spacingLeft=28;spacingRight=4;rotatable=0;points=[[0,0.5],[1,0.5]];portConstraint=eastwest;imageWidth=16;imageHeight=16;whiteSpace=wrap;html=1;image=img/clipart/Gear_128x128.png" vertex="1" parent="b10XOHRk4VMyjC0qILiY-91">
          <mxGeometry y="23" width="210" height="26" as="geometry" />
        </mxCell>
        <mxCell id="b10XOHRk4VMyjC0qILiY-93" value="AppSearchActions.js" style="label;fontStyle=0;strokeColor=none;fillColor=none;align=left;verticalAlign=top;overflow=hidden;spacingLeft=28;spacingRight=4;rotatable=0;points=[[0,0.5],[1,0.5]];portConstraint=eastwest;imageWidth=16;imageHeight=16;whiteSpace=wrap;html=1;image=img/clipart/Gear_128x128.png" vertex="1" parent="b10XOHRk4VMyjC0qILiY-91">
          <mxGeometry y="49" width="210" height="26" as="geometry" />
        </mxCell>
        <mxCell id="b10XOHRk4VMyjC0qILiY-94" value="ComponentActions.js" style="label;fontStyle=0;strokeColor=none;fillColor=none;align=left;verticalAlign=top;overflow=hidden;spacingLeft=28;spacingRight=4;rotatable=0;points=[[0,0.5],[1,0.5]];portConstraint=eastwest;imageWidth=16;imageHeight=16;whiteSpace=wrap;html=1;image=img/clipart/Gear_128x128.png" vertex="1" parent="b10XOHRk4VMyjC0qILiY-91">
          <mxGeometry y="75" width="210" height="26" as="geometry" />
        </mxCell>
        <mxCell id="b10XOHRk4VMyjC0qILiY-95" value="DataUpdatedActions.js" style="label;fontStyle=0;strokeColor=none;fillColor=none;align=left;verticalAlign=top;overflow=hidden;spacingLeft=28;spacingRight=4;rotatable=0;points=[[0,0.5],[1,0.5]];portConstraint=eastwest;imageWidth=16;imageHeight=16;whiteSpace=wrap;html=1;image=img/clipart/Gear_128x128.png" vertex="1" parent="b10XOHRk4VMyjC0qILiY-91">
          <mxGeometry y="101" width="210" height="26" as="geometry" />
        </mxCell>
        <mxCell id="b10XOHRk4VMyjC0qILiY-7" value="minirol" style="shape=umlFrame;whiteSpace=wrap;html=1;pointerEvents=0;" vertex="1" parent="1">
          <mxGeometry width="750" height="4360" as="geometry" />
        </mxCell>
        <mxCell id="b10XOHRk4VMyjC0qILiY-45" value="api" style="swimlane;fillColor=#f5f5f5;fontColor=#333333;strokeColor=#666666;" vertex="1" parent="1">
          <mxGeometry x="40" y="340" width="570" height="700" as="geometry">
            <mxRectangle x="30" y="340" width="60" height="30" as="alternateBounds" />
          </mxGeometry>
        </mxCell>
        <mxCell id="b10XOHRk4VMyjC0qILiY-46" value="graphql" style="swimlane;fillColor=#f5f5f5;strokeColor=#666666;fontColor=#333333;" vertex="1" parent="b10XOHRk4VMyjC0qILiY-45">
          <mxGeometry x="10" y="45" width="330" height="645" as="geometry">
            <mxRectangle x="10" y="45" width="80" height="30" as="alternateBounds" />
          </mxGeometry>
        </mxCell>
        <mxCell id="b10XOHRk4VMyjC0qILiY-50" value="fragment" style="swimlane;startSize=20;horizontal=1;containerType=tree;fillColor=#e1d5e7;strokeColor=#9673a6;" vertex="1" parent="b10XOHRk4VMyjC0qILiY-46">
          <mxGeometry x="10" y="35" width="140" height="115" as="geometry">
            <mxRectangle x="10" y="35" width="90" height="30" as="alternateBounds" />
          </mxGeometry>
        </mxCell>
        <mxCell id="b10XOHRk4VMyjC0qILiY-54" value="{some-fragment}.js" style="rounded=0;whiteSpace=wrap;html=1;" vertex="1" parent="b10XOHRk4VMyjC0qILiY-50">
          <mxGeometry x="10" y="30" width="120" height="30" as="geometry" />
        </mxCell>
        <mxCell id="b10XOHRk4VMyjC0qILiY-55" value="..." style="rounded=0;whiteSpace=wrap;html=1;" vertex="1" parent="b10XOHRk4VMyjC0qILiY-50">
          <mxGeometry x="10" y="70" width="120" height="30" as="geometry" />
        </mxCell>
        <mxCell id="b10XOHRk4VMyjC0qILiY-60" value="mutation" style="swimlane;startSize=20;horizontal=1;containerType=tree;fillColor=#e1d5e7;strokeColor=#9673a6;" vertex="1" parent="b10XOHRk4VMyjC0qILiY-46">
          <mxGeometry x="10" y="165" width="140" height="355" as="geometry">
            <mxRectangle x="10" y="35" width="90" height="30" as="alternateBounds" />
          </mxGeometry>
        </mxCell>
        <mxCell id="b10XOHRk4VMyjC0qILiY-61" value="auth" style="rounded=0;whiteSpace=wrap;html=1;" vertex="1" parent="b10XOHRk4VMyjC0qILiY-60">
          <mxGeometry x="10" y="30" width="120" height="30" as="geometry" />
        </mxCell>
        <mxCell id="b10XOHRk4VMyjC0qILiY-62" value="cart" style="rounded=0;whiteSpace=wrap;html=1;" vertex="1" parent="b10XOHRk4VMyjC0qILiY-60">
          <mxGeometry x="10" y="70" width="120" height="30" as="geometry" />
        </mxCell>
        <mxCell id="b10XOHRk4VMyjC0qILiY-63" value="configurator" style="rounded=0;whiteSpace=wrap;html=1;" vertex="1" parent="b10XOHRk4VMyjC0qILiY-60">
          <mxGeometry x="10" y="110" width="120" height="30" as="geometry" />
        </mxCell>
        <mxCell id="b10XOHRk4VMyjC0qILiY-64" value="customerQuote" style="rounded=0;whiteSpace=wrap;html=1;" vertex="1" parent="b10XOHRk4VMyjC0qILiY-60">
          <mxGeometry x="10" y="150" width="120" height="30" as="geometry" />
        </mxCell>
        <mxCell id="b10XOHRk4VMyjC0qILiY-65" value="passwordReset" style="rounded=0;whiteSpace=wrap;html=1;" vertex="1" parent="b10XOHRk4VMyjC0qILiY-60">
          <mxGeometry x="10" y="190" width="120" height="30" as="geometry" />
        </mxCell>
        <mxCell id="b10XOHRk4VMyjC0qILiY-66" value="product" style="rounded=0;whiteSpace=wrap;html=1;" vertex="1" parent="b10XOHRk4VMyjC0qILiY-60">
          <mxGeometry x="10" y="230" width="120" height="30" as="geometry" />
        </mxCell>
        <mxCell id="b10XOHRk4VMyjC0qILiY-67" value="registration" style="rounded=0;whiteSpace=wrap;html=1;" vertex="1" parent="b10XOHRk4VMyjC0qILiY-60">
          <mxGeometry x="10" y="270" width="120" height="30" as="geometry" />
        </mxCell>
        <mxCell id="b10XOHRk4VMyjC0qILiY-68" value="user" style="rounded=0;whiteSpace=wrap;html=1;" vertex="1" parent="b10XOHRk4VMyjC0qILiY-60">
          <mxGeometry x="10" y="310" width="120" height="30" as="geometry" />
        </mxCell>
        <mxCell id="b10XOHRk4VMyjC0qILiY-69" value="query" style="swimlane;startSize=20;horizontal=1;containerType=tree;fillColor=#e1d5e7;strokeColor=#9673a6;" vertex="1" parent="b10XOHRk4VMyjC0qILiY-46">
          <mxGeometry x="170" y="35" width="140" height="545" as="geometry">
            <mxRectangle x="10" y="35" width="90" height="30" as="alternateBounds" />
          </mxGeometry>
        </mxCell>
        <mxCell id="b10XOHRk4VMyjC0qILiY-70" value="appSearch" style="rounded=0;whiteSpace=wrap;html=1;" vertex="1" parent="b10XOHRk4VMyjC0qILiY-69">
          <mxGeometry x="10" y="30" width="120" height="30" as="geometry" />
        </mxCell>
        <mxCell id="b10XOHRk4VMyjC0qILiY-71" value="cart" style="rounded=0;whiteSpace=wrap;html=1;" vertex="1" parent="b10XOHRk4VMyjC0qILiY-69">
          <mxGeometry x="10" y="70" width="120" height="30" as="geometry" />
        </mxCell>
        <mxCell id="b10XOHRk4VMyjC0qILiY-72" value="configurator" style="rounded=0;whiteSpace=wrap;html=1;" vertex="1" parent="b10XOHRk4VMyjC0qILiY-69">
          <mxGeometry x="10" y="110" width="120" height="30" as="geometry" />
        </mxCell>
        <mxCell id="b10XOHRk4VMyjC0qILiY-73" value="customerQuote" style="rounded=0;whiteSpace=wrap;html=1;" vertex="1" parent="b10XOHRk4VMyjC0qILiY-69">
          <mxGeometry x="10" y="150" width="120" height="30" as="geometry" />
        </mxCell>
        <mxCell id="b10XOHRk4VMyjC0qILiY-74" value="dashboard" style="rounded=0;whiteSpace=wrap;html=1;" vertex="1" parent="b10XOHRk4VMyjC0qILiY-69">
          <mxGeometry x="10" y="190" width="120" height="30" as="geometry" />
        </mxCell>
        <mxCell id="b10XOHRk4VMyjC0qILiY-75" value="enum" style="rounded=0;whiteSpace=wrap;html=1;" vertex="1" parent="b10XOHRk4VMyjC0qILiY-69">
          <mxGeometry x="10" y="230" width="120" height="30" as="geometry" />
        </mxCell>
        <mxCell id="b10XOHRk4VMyjC0qILiY-76" value="item" style="rounded=0;whiteSpace=wrap;html=1;" vertex="1" parent="b10XOHRk4VMyjC0qILiY-69">
          <mxGeometry x="10" y="270" width="120" height="30" as="geometry" />
        </mxCell>
        <mxCell id="b10XOHRk4VMyjC0qILiY-77" value="login" style="rounded=0;whiteSpace=wrap;html=1;" vertex="1" parent="b10XOHRk4VMyjC0qILiY-69">
          <mxGeometry x="10" y="310" width="120" height="30" as="geometry" />
        </mxCell>
        <mxCell id="b10XOHRk4VMyjC0qILiY-78" value="news" style="rounded=0;whiteSpace=wrap;html=1;" vertex="1" parent="b10XOHRk4VMyjC0qILiY-69">
          <mxGeometry x="10" y="350" width="120" height="30" as="geometry" />
        </mxCell>
        <mxCell id="b10XOHRk4VMyjC0qILiY-79" value="order" style="rounded=0;whiteSpace=wrap;html=1;" vertex="1" parent="b10XOHRk4VMyjC0qILiY-69">
          <mxGeometry x="10" y="390" width="120" height="30" as="geometry" />
        </mxCell>
        <mxCell id="b10XOHRk4VMyjC0qILiY-80" value="productsMenu" style="rounded=0;whiteSpace=wrap;html=1;" vertex="1" parent="b10XOHRk4VMyjC0qILiY-69">
          <mxGeometry x="10" y="430" width="120" height="30" as="geometry" />
        </mxCell>
        <mxCell id="b10XOHRk4VMyjC0qILiY-81" value="registration" style="rounded=0;whiteSpace=wrap;html=1;" vertex="1" parent="b10XOHRk4VMyjC0qILiY-69">
          <mxGeometry x="10" y="470" width="120" height="30" as="geometry" />
        </mxCell>
        <mxCell id="b10XOHRk4VMyjC0qILiY-82" value="user" style="rounded=0;whiteSpace=wrap;html=1;" vertex="1" parent="b10XOHRk4VMyjC0qILiY-69">
          <mxGeometry x="10" y="510" width="120" height="30" as="geometry" />
        </mxCell>
        <mxCell id="b10XOHRk4VMyjC0qILiY-83" value="generated.graphql.schema.json" style="label;fontStyle=0;strokeColor=none;fillColor=none;align=left;verticalAlign=top;overflow=hidden;spacingLeft=28;spacingRight=4;rotatable=0;points=[[0,0.5],[1,0.5]];portConstraint=eastwest;imageWidth=16;imageHeight=16;whiteSpace=wrap;html=1;image=img/clipart/Gear_128x128.png" vertex="1" parent="b10XOHRk4VMyjC0qILiY-46">
          <mxGeometry x="10" y="585" width="210" height="26" as="geometry" />
        </mxCell>
        <mxCell id="b10XOHRk4VMyjC0qILiY-84" value="generated.tsx" style="label;fontStyle=0;strokeColor=none;fillColor=none;align=left;verticalAlign=top;overflow=hidden;spacingLeft=28;spacingRight=4;rotatable=0;points=[[0,0.5],[1,0.5]];portConstraint=eastwest;imageWidth=16;imageHeight=16;whiteSpace=wrap;html=1;image=img/clipart/Gear_128x128.png" vertex="1" parent="b10XOHRk4VMyjC0qILiY-46">
          <mxGeometry x="10" y="611" width="120" height="26" as="geometry" />
        </mxCell>
        <mxCell id="b10XOHRk4VMyjC0qILiY-85" value="API_HOSTNAME.ts" style="label;fontStyle=0;strokeColor=none;fillColor=none;align=left;verticalAlign=top;overflow=hidden;spacingLeft=28;spacingRight=4;rotatable=0;points=[[0,0.5],[1,0.5]];portConstraint=eastwest;imageWidth=16;imageHeight=16;whiteSpace=wrap;html=1;image=img/clipart/Gear_128x128.png" vertex="1" parent="b10XOHRk4VMyjC0qILiY-45">
          <mxGeometry x="340" y="45" width="210" height="26" as="geometry" />
        </mxCell>
        <mxCell id="b10XOHRk4VMyjC0qILiY-86" value="apiFileDownload.js" style="label;fontStyle=0;strokeColor=none;fillColor=none;align=left;verticalAlign=top;overflow=hidden;spacingLeft=28;spacingRight=4;rotatable=0;points=[[0,0.5],[1,0.5]];portConstraint=eastwest;imageWidth=16;imageHeight=16;whiteSpace=wrap;html=1;image=img/clipart/Gear_128x128.png" vertex="1" parent="b10XOHRk4VMyjC0qILiY-45">
          <mxGeometry x="340" y="71" width="210" height="26" as="geometry" />
        </mxCell>
        <mxCell id="b10XOHRk4VMyjC0qILiY-87" value="apiFileUpload.js" style="label;fontStyle=0;strokeColor=none;fillColor=none;align=left;verticalAlign=top;overflow=hidden;spacingLeft=28;spacingRight=4;rotatable=0;points=[[0,0.5],[1,0.5]];portConstraint=eastwest;imageWidth=16;imageHeight=16;whiteSpace=wrap;html=1;image=img/clipart/Gear_128x128.png" vertex="1" parent="b10XOHRk4VMyjC0qILiY-45">
          <mxGeometry x="340" y="97" width="210" height="26" as="geometry" />
        </mxCell>
        <mxCell id="b10XOHRk4VMyjC0qILiY-88" value="apolloClient.js" style="label;fontStyle=0;strokeColor=none;fillColor=none;align=left;verticalAlign=top;overflow=hidden;spacingLeft=28;spacingRight=4;rotatable=0;points=[[0,0.5],[1,0.5]];portConstraint=eastwest;imageWidth=16;imageHeight=16;whiteSpace=wrap;html=1;image=img/clipart/Gear_128x128.png" vertex="1" parent="b10XOHRk4VMyjC0qILiY-45">
          <mxGeometry x="340" y="123" width="210" height="26" as="geometry" />
        </mxCell>
        <mxCell id="b10XOHRk4VMyjC0qILiY-89" value="CONFIGURATOR_HOSTNAME.ts" style="label;fontStyle=0;strokeColor=none;fillColor=none;align=left;verticalAlign=top;overflow=hidden;spacingLeft=28;spacingRight=4;rotatable=0;points=[[0,0.5],[1,0.5]];portConstraint=eastwest;imageWidth=16;imageHeight=16;whiteSpace=wrap;html=1;image=img/clipart/Gear_128x128.png" vertex="1" parent="b10XOHRk4VMyjC0qILiY-45">
          <mxGeometry x="340" y="149" width="220" height="26" as="geometry" />
        </mxCell>
        <mxCell id="b10XOHRk4VMyjC0qILiY-90" value="configuratorApi.ts" style="label;fontStyle=0;strokeColor=none;fillColor=none;align=left;verticalAlign=top;overflow=hidden;spacingLeft=28;spacingRight=4;rotatable=0;points=[[0,0.5],[1,0.5]];portConstraint=eastwest;imageWidth=16;imageHeight=16;whiteSpace=wrap;html=1;image=img/clipart/Gear_128x128.png" vertex="1" parent="b10XOHRk4VMyjC0qILiY-45">
          <mxGeometry x="340" y="175" width="210" height="26" as="geometry" />
        </mxCell>
        <mxCell id="b10XOHRk4VMyjC0qILiY-96" value="DetailActions.js" style="label;fontStyle=0;strokeColor=none;fillColor=none;align=left;verticalAlign=top;overflow=hidden;spacingLeft=28;spacingRight=4;rotatable=0;points=[[0,0.5],[1,0.5]];portConstraint=eastwest;imageWidth=16;imageHeight=16;whiteSpace=wrap;html=1;image=img/clipart/Gear_128x128.png" vertex="1" parent="1">
          <mxGeometry x="40" y="207" width="210" height="26" as="geometry" />
        </mxCell>
        <mxCell id="b10XOHRk4VMyjC0qILiY-97" value="ListActions.js" style="label;fontStyle=0;strokeColor=none;fillColor=none;align=left;verticalAlign=top;overflow=hidden;spacingLeft=28;spacingRight=4;rotatable=0;points=[[0,0.5],[1,0.5]];portConstraint=eastwest;imageWidth=16;imageHeight=16;whiteSpace=wrap;html=1;image=img/clipart/Gear_128x128.png" vertex="1" parent="1">
          <mxGeometry x="40" y="233" width="210" height="26" as="geometry" />
        </mxCell>
        <mxCell id="b10XOHRk4VMyjC0qILiY-98" value="LoginActions.js" style="label;fontStyle=0;strokeColor=none;fillColor=none;align=left;verticalAlign=top;overflow=hidden;spacingLeft=28;spacingRight=4;rotatable=0;points=[[0,0.5],[1,0.5]];portConstraint=eastwest;imageWidth=16;imageHeight=16;whiteSpace=wrap;html=1;image=img/clipart/Gear_128x128.png" vertex="1" parent="1">
          <mxGeometry x="40" y="259" width="210" height="26" as="geometry" />
        </mxCell>
        <mxCell id="b10XOHRk4VMyjC0qILiY-99" value="MainActions.js" style="label;fontStyle=0;strokeColor=none;fillColor=none;align=left;verticalAlign=top;overflow=hidden;spacingLeft=28;spacingRight=4;rotatable=0;points=[[0,0.5],[1,0.5]];portConstraint=eastwest;imageWidth=16;imageHeight=16;whiteSpace=wrap;html=1;image=img/clipart/Gear_128x128.png" vertex="1" parent="1">
          <mxGeometry x="40" y="285" width="210" height="26" as="geometry" />
        </mxCell>
        <mxCell id="b10XOHRk4VMyjC0qILiY-100" value="components" style="swimlane;fillColor=#f5f5f5;fontColor=#333333;strokeColor=#666666;" vertex="1" parent="1">
          <mxGeometry x="40" y="1060" width="680" height="3240" as="geometry" />
        </mxCell>
        <mxCell id="b10XOHRk4VMyjC0qILiY-107" value="common" style="swimlane;fillColor=#e1d5e7;strokeColor=#9673a6;fillStyle=auto;rounded=0;shadow=0;glass=0;" vertex="1" parent="b10XOHRk4VMyjC0qILiY-100">
          <mxGeometry x="10" y="40" width="560" height="1320" as="geometry">
            <mxRectangle x="10" y="40" width="90" height="30" as="alternateBounds" />
          </mxGeometry>
        </mxCell>
        <mxCell id="b10XOHRk4VMyjC0qILiY-111" value="&lt;p style=&quot;margin:0px;margin-top:6px;text-align:center;&quot;&gt;&lt;b&gt;animations&lt;/b&gt;&lt;br&gt;&lt;/p&gt;&lt;hr&gt;&lt;p style=&quot;margin:0px;margin-left:8px;&quot;&gt;&lt;br&gt;&lt;/p&gt;" style="align=left;overflow=fill;html=1;dropTarget=0;whiteSpace=wrap;fillColor=#dae8fc;strokeColor=#6c8ebf;" vertex="1" parent="b10XOHRk4VMyjC0qILiY-107">
          <mxGeometry x="10" y="30" width="230" height="90" as="geometry" />
        </mxCell>
        <mxCell id="b10XOHRk4VMyjC0qILiY-112" value="" style="shape=component;jettyWidth=8;jettyHeight=4;" vertex="1" parent="b10XOHRk4VMyjC0qILiY-111">
          <mxGeometry x="1" width="20" height="20" relative="1" as="geometry">
            <mxPoint x="-24" y="4" as="offset" />
          </mxGeometry>
        </mxCell>
        <mxCell id="b10XOHRk4VMyjC0qILiY-113" value="slide" style="rounded=0;whiteSpace=wrap;html=1;" vertex="1" parent="b10XOHRk4VMyjC0qILiY-107">
          <mxGeometry x="20" y="70" width="190" height="30" as="geometry" />
        </mxCell>
        <mxCell id="b10XOHRk4VMyjC0qILiY-115" value="&lt;p style=&quot;margin:0px;margin-top:6px;text-align:center;&quot;&gt;&lt;b&gt;ControllableCanvas&lt;/b&gt;&lt;/p&gt;&lt;p style=&quot;margin:0px;margin-left:8px;&quot;&gt;&lt;br&gt;&lt;/p&gt;" style="align=left;overflow=fill;html=1;dropTarget=0;whiteSpace=wrap;fillColor=#dae8fc;strokeColor=#6c8ebf;" vertex="1" parent="b10XOHRk4VMyjC0qILiY-107">
          <mxGeometry x="10" y="130" width="230" height="30" as="geometry" />
        </mxCell>
        <mxCell id="b10XOHRk4VMyjC0qILiY-116" value="" style="shape=component;jettyWidth=8;jettyHeight=4;" vertex="1" parent="b10XOHRk4VMyjC0qILiY-115">
          <mxGeometry x="1" width="20" height="20" relative="1" as="geometry">
            <mxPoint x="-24" y="4" as="offset" />
          </mxGeometry>
        </mxCell>
        <mxCell id="b10XOHRk4VMyjC0qILiY-117" value="&lt;p style=&quot;margin:0px;margin-top:6px;text-align:center;&quot;&gt;&lt;b&gt;design&lt;/b&gt;&lt;br&gt;&lt;/p&gt;&lt;hr&gt;&lt;p style=&quot;margin:0px;margin-left:8px;&quot;&gt;&lt;br&gt;&lt;/p&gt;" style="align=left;overflow=fill;html=1;dropTarget=0;whiteSpace=wrap;fillColor=#dae8fc;strokeColor=#6c8ebf;" vertex="1" parent="b10XOHRk4VMyjC0qILiY-107">
          <mxGeometry x="10" y="170" width="230" height="130" as="geometry" />
        </mxCell>
        <mxCell id="b10XOHRk4VMyjC0qILiY-118" value="" style="shape=component;jettyWidth=8;jettyHeight=4;" vertex="1" parent="b10XOHRk4VMyjC0qILiY-117">
          <mxGeometry x="1" width="20" height="20" relative="1" as="geometry">
            <mxPoint x="-24" y="4" as="offset" />
          </mxGeometry>
        </mxCell>
        <mxCell id="b10XOHRk4VMyjC0qILiY-119" value="HorizontallyCenteredContainer" style="rounded=0;whiteSpace=wrap;html=1;" vertex="1" parent="b10XOHRk4VMyjC0qILiY-107">
          <mxGeometry x="20" y="210" width="190" height="30" as="geometry" />
        </mxCell>
        <mxCell id="b10XOHRk4VMyjC0qILiY-129" value="VerticallyCenteredContainer" style="rounded=0;whiteSpace=wrap;html=1;" vertex="1" parent="b10XOHRk4VMyjC0qILiY-107">
          <mxGeometry x="20" y="250" width="190" height="30" as="geometry" />
        </mxCell>
        <mxCell id="b10XOHRk4VMyjC0qILiY-130" value="&lt;p style=&quot;margin:0px;margin-top:6px;text-align:center;&quot;&gt;&lt;b&gt;error&lt;/b&gt;&lt;br&gt;&lt;/p&gt;&lt;hr&gt;&lt;p style=&quot;margin:0px;margin-left:8px;&quot;&gt;&lt;br&gt;&lt;/p&gt;" style="align=left;overflow=fill;html=1;dropTarget=0;whiteSpace=wrap;fillColor=#dae8fc;strokeColor=#6c8ebf;" vertex="1" parent="b10XOHRk4VMyjC0qILiY-107">
          <mxGeometry x="10" y="310" width="230" height="90" as="geometry" />
        </mxCell>
        <mxCell id="b10XOHRk4VMyjC0qILiY-131" value="" style="shape=component;jettyWidth=8;jettyHeight=4;" vertex="1" parent="b10XOHRk4VMyjC0qILiY-130">
          <mxGeometry x="1" width="20" height="20" relative="1" as="geometry">
            <mxPoint x="-24" y="4" as="offset" />
          </mxGeometry>
        </mxCell>
        <mxCell id="b10XOHRk4VMyjC0qILiY-132" value="HideErrorBoundary" style="rounded=0;whiteSpace=wrap;html=1;" vertex="1" parent="b10XOHRk4VMyjC0qILiY-107">
          <mxGeometry x="20" y="350" width="190" height="30" as="geometry" />
        </mxCell>
        <mxCell id="b10XOHRk4VMyjC0qILiY-137" value="&lt;p style=&quot;margin:0px;margin-top:6px;text-align:center;&quot;&gt;&lt;b&gt;form&lt;/b&gt;&lt;br&gt;&lt;/p&gt;&lt;hr&gt;&lt;p style=&quot;margin:0px;margin-left:8px;&quot;&gt;&lt;br&gt;&lt;/p&gt;" style="align=left;overflow=fill;html=1;dropTarget=0;whiteSpace=wrap;fillColor=#dae8fc;strokeColor=#6c8ebf;" vertex="1" parent="b10XOHRk4VMyjC0qILiY-107">
          <mxGeometry x="10" y="410" width="540" height="440" as="geometry" />
        </mxCell>
        <mxCell id="b10XOHRk4VMyjC0qILiY-138" value="" style="shape=component;jettyWidth=8;jettyHeight=4;" vertex="1" parent="b10XOHRk4VMyjC0qILiY-137">
          <mxGeometry x="1" width="20" height="20" relative="1" as="geometry">
            <mxPoint x="-24" y="4" as="offset" />
          </mxGeometry>
        </mxCell>
        <mxCell id="b10XOHRk4VMyjC0qILiY-142" value="&lt;p style=&quot;margin:0px;margin-top:6px;text-align:center;&quot;&gt;&lt;b&gt;DefinedAction&lt;/b&gt;&lt;br&gt;&lt;/p&gt;&lt;hr&gt;&lt;p style=&quot;margin:0px;margin-left:8px;&quot;&gt;&lt;br&gt;&lt;/p&gt;" style="align=left;overflow=fill;html=1;dropTarget=0;whiteSpace=wrap;fillColor=#fff2cc;strokeColor=#d6b656;" vertex="1" parent="b10XOHRk4VMyjC0qILiY-107">
          <mxGeometry x="20" y="450" width="180" height="150" as="geometry" />
        </mxCell>
        <mxCell id="b10XOHRk4VMyjC0qILiY-143" value="" style="shape=component;jettyWidth=8;jettyHeight=4;" vertex="1" parent="b10XOHRk4VMyjC0qILiY-142">
          <mxGeometry x="1" width="20" height="20" relative="1" as="geometry">
            <mxPoint x="-24" y="4" as="offset" />
          </mxGeometry>
        </mxCell>
        <mxCell id="b10XOHRk4VMyjC0qILiY-144" value="FunctionDefinedAction" style="rounded=0;whiteSpace=wrap;html=1;" vertex="1" parent="b10XOHRk4VMyjC0qILiY-107">
          <mxGeometry x="30" y="490" width="160" height="30" as="geometry" />
        </mxCell>
        <mxCell id="b10XOHRk4VMyjC0qILiY-146" value="FunctionDefinedAction" style="rounded=0;whiteSpace=wrap;html=1;" vertex="1" parent="b10XOHRk4VMyjC0qILiY-107">
          <mxGeometry x="30" y="529" width="160" height="30" as="geometry" />
        </mxCell>
        <mxCell id="b10XOHRk4VMyjC0qILiY-147" value="DefinedAction.tsx" style="label;fontStyle=0;strokeColor=none;fillColor=none;align=left;verticalAlign=top;overflow=hidden;spacingLeft=28;spacingRight=4;rotatable=0;points=[[0,0.5],[1,0.5]];portConstraint=eastwest;imageWidth=16;imageHeight=16;whiteSpace=wrap;html=1;image=img/clipart/Gear_128x128.png" vertex="1" parent="b10XOHRk4VMyjC0qILiY-107">
          <mxGeometry x="30" y="570" width="130" height="26" as="geometry" />
        </mxCell>
        <mxCell id="b10XOHRk4VMyjC0qILiY-148" value="&lt;p style=&quot;margin:0px;margin-top:6px;text-align:center;&quot;&gt;&lt;b&gt;input&lt;/b&gt;&lt;br&gt;&lt;/p&gt;&lt;hr&gt;&lt;p style=&quot;margin:0px;margin-left:8px;&quot;&gt;&lt;br&gt;&lt;/p&gt;" style="align=left;overflow=fill;html=1;dropTarget=0;whiteSpace=wrap;fillColor=#fff2cc;strokeColor=#d6b656;" vertex="1" parent="b10XOHRk4VMyjC0qILiY-107">
          <mxGeometry x="220" y="450" width="180" height="390" as="geometry" />
        </mxCell>
        <mxCell id="b10XOHRk4VMyjC0qILiY-149" value="" style="shape=component;jettyWidth=8;jettyHeight=4;" vertex="1" parent="b10XOHRk4VMyjC0qILiY-148">
          <mxGeometry x="1" width="20" height="20" relative="1" as="geometry">
            <mxPoint x="-24" y="4" as="offset" />
          </mxGeometry>
        </mxCell>
        <mxCell id="b10XOHRk4VMyjC0qILiY-150" value="CustomRadio" style="rounded=0;whiteSpace=wrap;html=1;" vertex="1" parent="b10XOHRk4VMyjC0qILiY-107">
          <mxGeometry x="230" y="490" width="160" height="30" as="geometry" />
        </mxCell>
        <mxCell id="b10XOHRk4VMyjC0qILiY-151" value="CustomSearchSelect" style="rounded=0;whiteSpace=wrap;html=1;" vertex="1" parent="b10XOHRk4VMyjC0qILiY-107">
          <mxGeometry x="230" y="529" width="160" height="30" as="geometry" />
        </mxCell>
        <mxCell id="b10XOHRk4VMyjC0qILiY-152" value="DatePicker.js" style="label;fontStyle=0;strokeColor=none;fillColor=none;align=left;verticalAlign=top;overflow=hidden;spacingLeft=28;spacingRight=4;rotatable=0;points=[[0,0.5],[1,0.5]];portConstraint=eastwest;imageWidth=16;imageHeight=16;whiteSpace=wrap;html=1;image=img/clipart/Gear_128x128.png" vertex="1" parent="b10XOHRk4VMyjC0qILiY-107">
          <mxGeometry x="230" y="730" width="130" height="26" as="geometry" />
        </mxCell>
        <mxCell id="b10XOHRk4VMyjC0qILiY-153" value="CustomSelect" style="rounded=0;whiteSpace=wrap;html=1;" vertex="1" parent="b10XOHRk4VMyjC0qILiY-107">
          <mxGeometry x="230" y="568" width="160" height="30" as="geometry" />
        </mxCell>
        <mxCell id="b10XOHRk4VMyjC0qILiY-154" value="FolderTabs" style="rounded=0;whiteSpace=wrap;html=1;" vertex="1" parent="b10XOHRk4VMyjC0qILiY-107">
          <mxGeometry x="230" y="610" width="160" height="30" as="geometry" />
        </mxCell>
        <mxCell id="b10XOHRk4VMyjC0qILiY-155" value="OptionsRadioButton" style="rounded=0;whiteSpace=wrap;html=1;" vertex="1" parent="b10XOHRk4VMyjC0qILiY-107">
          <mxGeometry x="230" y="650" width="160" height="30" as="geometry" />
        </mxCell>
        <mxCell id="b10XOHRk4VMyjC0qILiY-156" value="searchSelect" style="rounded=0;whiteSpace=wrap;html=1;" vertex="1" parent="b10XOHRk4VMyjC0qILiY-107">
          <mxGeometry x="230" y="690" width="160" height="30" as="geometry" />
        </mxCell>
        <mxCell id="b10XOHRk4VMyjC0qILiY-157" value="DateTimePicker.js" style="label;fontStyle=0;strokeColor=none;fillColor=none;align=left;verticalAlign=top;overflow=hidden;spacingLeft=28;spacingRight=4;rotatable=0;points=[[0,0.5],[1,0.5]];portConstraint=eastwest;imageWidth=16;imageHeight=16;whiteSpace=wrap;html=1;image=img/clipart/Gear_128x128.png" vertex="1" parent="b10XOHRk4VMyjC0qILiY-107">
          <mxGeometry x="230" y="756" width="130" height="26" as="geometry" />
        </mxCell>
        <mxCell id="b10XOHRk4VMyjC0qILiY-158" value="ImageInput.js" style="label;fontStyle=0;strokeColor=none;fillColor=none;align=left;verticalAlign=top;overflow=hidden;spacingLeft=28;spacingRight=4;rotatable=0;points=[[0,0.5],[1,0.5]];portConstraint=eastwest;imageWidth=16;imageHeight=16;whiteSpace=wrap;html=1;image=img/clipart/Gear_128x128.png" vertex="1" parent="b10XOHRk4VMyjC0qILiY-107">
          <mxGeometry x="230" y="780" width="130" height="28" as="geometry" />
        </mxCell>
        <mxCell id="b10XOHRk4VMyjC0qILiY-191" value="SquareCheckbox.js" style="label;fontStyle=0;strokeColor=none;fillColor=none;align=left;verticalAlign=top;overflow=hidden;spacingLeft=28;spacingRight=4;rotatable=0;points=[[0,0.5],[1,0.5]];portConstraint=eastwest;imageWidth=16;imageHeight=16;whiteSpace=wrap;html=1;image=img/clipart/Gear_128x128.png" vertex="1" parent="b10XOHRk4VMyjC0qILiY-107">
          <mxGeometry x="230" y="808" width="150" height="28" as="geometry" />
        </mxCell>
        <mxCell id="b10XOHRk4VMyjC0qILiY-192" value="DefinedActions.js" style="label;fontStyle=0;strokeColor=none;fillColor=none;align=left;verticalAlign=top;overflow=hidden;spacingLeft=28;spacingRight=4;rotatable=0;points=[[0,0.5],[1,0.5]];portConstraint=eastwest;imageWidth=16;imageHeight=16;whiteSpace=wrap;html=1;image=img/clipart/Gear_128x128.png" vertex="1" parent="b10XOHRk4VMyjC0qILiY-107">
          <mxGeometry x="410" y="450" width="130" height="26" as="geometry" />
        </mxCell>
        <mxCell id="b10XOHRk4VMyjC0qILiY-193" value="SimpleForm.js" style="label;fontStyle=0;strokeColor=none;fillColor=none;align=left;verticalAlign=top;overflow=hidden;spacingLeft=28;spacingRight=4;rotatable=0;points=[[0,0.5],[1,0.5]];portConstraint=eastwest;imageWidth=16;imageHeight=16;whiteSpace=wrap;html=1;image=img/clipart/Gear_128x128.png" vertex="1" parent="b10XOHRk4VMyjC0qILiY-107">
          <mxGeometry x="410" y="476" width="130" height="26" as="geometry" />
        </mxCell>
        <mxCell id="b10XOHRk4VMyjC0qILiY-194" value="&lt;p style=&quot;margin:0px;margin-top:6px;text-align:center;&quot;&gt;&lt;b&gt;graphql&lt;/b&gt;&lt;br&gt;&lt;/p&gt;&lt;hr&gt;&lt;p style=&quot;margin:0px;margin-left:8px;&quot;&gt;&lt;br&gt;&lt;/p&gt;" style="align=left;overflow=fill;html=1;dropTarget=0;whiteSpace=wrap;fillColor=#dae8fc;strokeColor=#6c8ebf;" vertex="1" parent="b10XOHRk4VMyjC0qILiY-107">
          <mxGeometry x="10" y="860" width="230" height="120" as="geometry" />
        </mxCell>
        <mxCell id="b10XOHRk4VMyjC0qILiY-195" value="" style="shape=component;jettyWidth=8;jettyHeight=4;" vertex="1" parent="b10XOHRk4VMyjC0qILiY-194">
          <mxGeometry x="1" width="20" height="20" relative="1" as="geometry">
            <mxPoint x="-24" y="4" as="offset" />
          </mxGeometry>
        </mxCell>
        <mxCell id="b10XOHRk4VMyjC0qILiY-197" value="MutationLoaderButton.js" style="label;fontStyle=0;strokeColor=none;fillColor=none;align=left;verticalAlign=top;overflow=hidden;spacingLeft=28;spacingRight=4;rotatable=0;points=[[0,0.5],[1,0.5]];portConstraint=eastwest;imageWidth=16;imageHeight=16;whiteSpace=wrap;html=1;image=img/clipart/Gear_128x128.png" vertex="1" parent="b10XOHRk4VMyjC0qILiY-107">
          <mxGeometry x="10" y="890" width="170" height="26" as="geometry" />
        </mxCell>
        <mxCell id="b10XOHRk4VMyjC0qILiY-199" value="SmartMutation.js" style="label;fontStyle=0;strokeColor=none;fillColor=none;align=left;verticalAlign=top;overflow=hidden;spacingLeft=28;spacingRight=4;rotatable=0;points=[[0,0.5],[1,0.5]];portConstraint=eastwest;imageWidth=16;imageHeight=16;whiteSpace=wrap;html=1;image=img/clipart/Gear_128x128.png" vertex="1" parent="b10XOHRk4VMyjC0qILiY-107">
          <mxGeometry x="10" y="916" width="170" height="26" as="geometry" />
        </mxCell>
        <mxCell id="b10XOHRk4VMyjC0qILiY-200" value="SmartQuery.js" style="label;fontStyle=0;strokeColor=none;fillColor=none;align=left;verticalAlign=top;overflow=hidden;spacingLeft=28;spacingRight=4;rotatable=0;points=[[0,0.5],[1,0.5]];portConstraint=eastwest;imageWidth=16;imageHeight=16;whiteSpace=wrap;html=1;image=img/clipart/Gear_128x128.png" vertex="1" parent="b10XOHRk4VMyjC0qILiY-107">
          <mxGeometry x="10" y="942" width="170" height="26" as="geometry" />
        </mxCell>
        <mxCell id="b10XOHRk4VMyjC0qILiY-201" value="&lt;p style=&quot;margin:0px;margin-top:6px;text-align:center;&quot;&gt;&lt;b&gt;HtmlContent&lt;/b&gt;&lt;br&gt;&lt;/p&gt;" style="align=left;overflow=fill;html=1;dropTarget=0;whiteSpace=wrap;fillColor=#dae8fc;strokeColor=#6c8ebf;" vertex="1" parent="b10XOHRk4VMyjC0qILiY-107">
          <mxGeometry x="10" y="990" width="230" height="30" as="geometry" />
        </mxCell>
        <mxCell id="b10XOHRk4VMyjC0qILiY-202" value="" style="shape=component;jettyWidth=8;jettyHeight=4;" vertex="1" parent="b10XOHRk4VMyjC0qILiY-201">
          <mxGeometry x="1" width="20" height="20" relative="1" as="geometry">
            <mxPoint x="-24" y="4" as="offset" />
          </mxGeometry>
        </mxCell>
        <mxCell id="b10XOHRk4VMyjC0qILiY-203" value="&lt;p style=&quot;margin:0px;margin-top:6px;text-align:center;&quot;&gt;&lt;b&gt;IconPicker&lt;/b&gt;&lt;br&gt;&lt;/p&gt;" style="align=left;overflow=fill;html=1;dropTarget=0;whiteSpace=wrap;fillColor=#dae8fc;strokeColor=#6c8ebf;" vertex="1" parent="b10XOHRk4VMyjC0qILiY-107">
          <mxGeometry x="10" y="1030" width="230" height="30" as="geometry" />
        </mxCell>
        <mxCell id="b10XOHRk4VMyjC0qILiY-204" value="" style="shape=component;jettyWidth=8;jettyHeight=4;" vertex="1" parent="b10XOHRk4VMyjC0qILiY-203">
          <mxGeometry x="1" width="20" height="20" relative="1" as="geometry">
            <mxPoint x="-24" y="4" as="offset" />
          </mxGeometry>
        </mxCell>
        <mxCell id="b10XOHRk4VMyjC0qILiY-208" value="&lt;p style=&quot;margin:0px;margin-top:6px;text-align:center;&quot;&gt;&lt;b&gt;listener&lt;/b&gt;&lt;br&gt;&lt;/p&gt;&lt;hr&gt;&lt;p style=&quot;margin:0px;margin-left:8px;&quot;&gt;&lt;br&gt;&lt;/p&gt;" style="align=left;overflow=fill;html=1;dropTarget=0;whiteSpace=wrap;fillColor=#dae8fc;strokeColor=#6c8ebf;" vertex="1" parent="b10XOHRk4VMyjC0qILiY-107">
          <mxGeometry x="10" y="1070" width="230" height="120" as="geometry" />
        </mxCell>
        <mxCell id="b10XOHRk4VMyjC0qILiY-209" value="" style="shape=component;jettyWidth=8;jettyHeight=4;" vertex="1" parent="b10XOHRk4VMyjC0qILiY-208">
          <mxGeometry x="1" width="20" height="20" relative="1" as="geometry">
            <mxPoint x="-24" y="4" as="offset" />
          </mxGeometry>
        </mxCell>
        <mxCell id="b10XOHRk4VMyjC0qILiY-211" value="MutationLoaderButton.js" style="label;fontStyle=0;strokeColor=none;fillColor=none;align=left;verticalAlign=top;overflow=hidden;spacingLeft=28;spacingRight=4;rotatable=0;points=[[0,0.5],[1,0.5]];portConstraint=eastwest;imageWidth=16;imageHeight=16;whiteSpace=wrap;html=1;image=img/clipart/Gear_128x128.png" vertex="1" parent="b10XOHRk4VMyjC0qILiY-107">
          <mxGeometry x="10" y="1102" width="170" height="26" as="geometry" />
        </mxCell>
        <mxCell id="b10XOHRk4VMyjC0qILiY-213" value="RouterLocationChangeListener.js" style="label;fontStyle=0;strokeColor=none;fillColor=none;align=left;verticalAlign=top;overflow=hidden;spacingLeft=28;spacingRight=4;rotatable=0;points=[[0,0.5],[1,0.5]];portConstraint=eastwest;imageWidth=16;imageHeight=16;whiteSpace=wrap;html=1;image=img/clipart/Gear_128x128.png" vertex="1" parent="b10XOHRk4VMyjC0qILiY-107">
          <mxGeometry x="10" y="1128" width="220" height="26" as="geometry" />
        </mxCell>
        <mxCell id="b10XOHRk4VMyjC0qILiY-215" value="WindowResizeListener.js" style="label;fontStyle=0;strokeColor=none;fillColor=none;align=left;verticalAlign=top;overflow=hidden;spacingLeft=28;spacingRight=4;rotatable=0;points=[[0,0.5],[1,0.5]];portConstraint=eastwest;imageWidth=16;imageHeight=16;whiteSpace=wrap;html=1;image=img/clipart/Gear_128x128.png" vertex="1" parent="b10XOHRk4VMyjC0qILiY-107">
          <mxGeometry x="10" y="1154" width="220" height="26" as="geometry" />
        </mxCell>
        <mxCell id="b10XOHRk4VMyjC0qILiY-216" value="&lt;p style=&quot;margin:0px;margin-top:6px;text-align:center;&quot;&gt;&lt;b&gt;selector&lt;/b&gt;&lt;br&gt;&lt;/p&gt;" style="align=left;overflow=fill;html=1;dropTarget=0;whiteSpace=wrap;fillColor=#dae8fc;strokeColor=#6c8ebf;" vertex="1" parent="b10XOHRk4VMyjC0qILiY-107">
          <mxGeometry x="10" y="1200" width="230" height="30" as="geometry" />
        </mxCell>
        <mxCell id="b10XOHRk4VMyjC0qILiY-217" value="" style="shape=component;jettyWidth=8;jettyHeight=4;" vertex="1" parent="b10XOHRk4VMyjC0qILiY-216">
          <mxGeometry x="1" width="20" height="20" relative="1" as="geometry">
            <mxPoint x="-24" y="4" as="offset" />
          </mxGeometry>
        </mxCell>
        <mxCell id="b10XOHRk4VMyjC0qILiY-218" value="&lt;p style=&quot;margin:0px;margin-top:6px;text-align:center;&quot;&gt;&lt;b&gt;SmartButton&lt;/b&gt;&lt;br&gt;&lt;/p&gt;" style="align=left;overflow=fill;html=1;dropTarget=0;whiteSpace=wrap;fillColor=#dae8fc;strokeColor=#6c8ebf;" vertex="1" parent="b10XOHRk4VMyjC0qILiY-107">
          <mxGeometry x="10" y="1240" width="230" height="30" as="geometry" />
        </mxCell>
        <mxCell id="b10XOHRk4VMyjC0qILiY-219" value="" style="shape=component;jettyWidth=8;jettyHeight=4;" vertex="1" parent="b10XOHRk4VMyjC0qILiY-218">
          <mxGeometry x="1" width="20" height="20" relative="1" as="geometry">
            <mxPoint x="-24" y="4" as="offset" />
          </mxGeometry>
        </mxCell>
        <mxCell id="b10XOHRk4VMyjC0qILiY-220" value="&lt;p style=&quot;margin:0px;margin-top:6px;text-align:center;&quot;&gt;&lt;b&gt;SubStateProvider&lt;/b&gt;&lt;br&gt;&lt;/p&gt;" style="align=left;overflow=fill;html=1;dropTarget=0;whiteSpace=wrap;fillColor=#dae8fc;strokeColor=#6c8ebf;" vertex="1" parent="b10XOHRk4VMyjC0qILiY-107">
          <mxGeometry x="10" y="1280" width="230" height="30" as="geometry" />
        </mxCell>
        <mxCell id="b10XOHRk4VMyjC0qILiY-221" value="" style="shape=component;jettyWidth=8;jettyHeight=4;" vertex="1" parent="b10XOHRk4VMyjC0qILiY-220">
          <mxGeometry x="1" width="20" height="20" relative="1" as="geometry">
            <mxPoint x="-24" y="4" as="offset" />
          </mxGeometry>
        </mxCell>
        <mxCell id="b10XOHRk4VMyjC0qILiY-222" value="CheckboxGrid.js" style="label;fontStyle=0;strokeColor=none;fillColor=none;align=left;verticalAlign=top;overflow=hidden;spacingLeft=28;spacingRight=4;rotatable=0;points=[[0,0.5],[1,0.5]];portConstraint=eastwest;imageWidth=16;imageHeight=16;whiteSpace=wrap;html=1;image=img/clipart/Gear_128x128.png" vertex="1" parent="b10XOHRk4VMyjC0qILiY-107">
          <mxGeometry x="270" y="860" width="170" height="26" as="geometry" />
        </mxCell>
        <mxCell id="b10XOHRk4VMyjC0qILiY-223" value="CompletionIndicator.js" style="label;fontStyle=0;strokeColor=none;fillColor=none;align=left;verticalAlign=top;overflow=hidden;spacingLeft=28;spacingRight=4;rotatable=0;points=[[0,0.5],[1,0.5]];portConstraint=eastwest;imageWidth=16;imageHeight=16;whiteSpace=wrap;html=1;image=img/clipart/Gear_128x128.png" vertex="1" parent="b10XOHRk4VMyjC0qILiY-107">
          <mxGeometry x="270" y="886" width="170" height="26" as="geometry" />
        </mxCell>
        <mxCell id="b10XOHRk4VMyjC0qILiY-224" value="DialogMutationButton.js" style="label;fontStyle=0;strokeColor=none;fillColor=none;align=left;verticalAlign=top;overflow=hidden;spacingLeft=28;spacingRight=4;rotatable=0;points=[[0,0.5],[1,0.5]];portConstraint=eastwest;imageWidth=16;imageHeight=16;whiteSpace=wrap;html=1;image=img/clipart/Gear_128x128.png" vertex="1" parent="b10XOHRk4VMyjC0qILiY-107">
          <mxGeometry x="270" y="912" width="170" height="26" as="geometry" />
        </mxCell>
        <mxCell id="b10XOHRk4VMyjC0qILiY-225" value="EnhancedTableHead.js" style="label;fontStyle=0;strokeColor=none;fillColor=none;align=left;verticalAlign=top;overflow=hidden;spacingLeft=28;spacingRight=4;rotatable=0;points=[[0,0.5],[1,0.5]];portConstraint=eastwest;imageWidth=16;imageHeight=16;whiteSpace=wrap;html=1;image=img/clipart/Gear_128x128.png" vertex="1" parent="b10XOHRk4VMyjC0qILiY-107">
          <mxGeometry x="270" y="938" width="170" height="26" as="geometry" />
        </mxCell>
        <mxCell id="b10XOHRk4VMyjC0qILiY-226" value="EnhancedTableToolbar.js" style="label;fontStyle=0;strokeColor=none;fillColor=none;align=left;verticalAlign=top;overflow=hidden;spacingLeft=28;spacingRight=4;rotatable=0;points=[[0,0.5],[1,0.5]];portConstraint=eastwest;imageWidth=16;imageHeight=16;whiteSpace=wrap;html=1;image=img/clipart/Gear_128x128.png" vertex="1" parent="b10XOHRk4VMyjC0qILiY-107">
          <mxGeometry x="270" y="960" width="170" height="26" as="geometry" />
        </mxCell>
        <mxCell id="b10XOHRk4VMyjC0qILiY-227" value="FragmentPropagator.js" style="label;fontStyle=0;strokeColor=none;fillColor=none;align=left;verticalAlign=top;overflow=hidden;spacingLeft=28;spacingRight=4;rotatable=0;points=[[0,0.5],[1,0.5]];portConstraint=eastwest;imageWidth=16;imageHeight=16;whiteSpace=wrap;html=1;image=img/clipart/Gear_128x128.png" vertex="1" parent="b10XOHRk4VMyjC0qILiY-107">
          <mxGeometry x="270" y="986" width="170" height="26" as="geometry" />
        </mxCell>
        <mxCell id="b10XOHRk4VMyjC0qILiY-228" value="InfoBar.js" style="label;fontStyle=0;strokeColor=none;fillColor=none;align=left;verticalAlign=top;overflow=hidden;spacingLeft=28;spacingRight=4;rotatable=0;points=[[0,0.5],[1,0.5]];portConstraint=eastwest;imageWidth=16;imageHeight=16;whiteSpace=wrap;html=1;image=img/clipart/Gear_128x128.png" vertex="1" parent="b10XOHRk4VMyjC0qILiY-107">
          <mxGeometry x="270" y="1012" width="170" height="26" as="geometry" />
        </mxCell>
        <mxCell id="b10XOHRk4VMyjC0qILiY-229" value="Loader.js" style="label;fontStyle=0;strokeColor=none;fillColor=none;align=left;verticalAlign=top;overflow=hidden;spacingLeft=28;spacingRight=4;rotatable=0;points=[[0,0.5],[1,0.5]];portConstraint=eastwest;imageWidth=16;imageHeight=16;whiteSpace=wrap;html=1;image=img/clipart/Gear_128x128.png" vertex="1" parent="b10XOHRk4VMyjC0qILiY-107">
          <mxGeometry x="270" y="1038" width="170" height="26" as="geometry" />
        </mxCell>
        <mxCell id="b10XOHRk4VMyjC0qILiY-230" value="LoadMoreButton.js" style="label;fontStyle=0;strokeColor=none;fillColor=none;align=left;verticalAlign=top;overflow=hidden;spacingLeft=28;spacingRight=4;rotatable=0;points=[[0,0.5],[1,0.5]];portConstraint=eastwest;imageWidth=16;imageHeight=16;whiteSpace=wrap;html=1;image=img/clipart/Gear_128x128.png" vertex="1" parent="b10XOHRk4VMyjC0qILiY-107">
          <mxGeometry x="270" y="1064" width="170" height="26" as="geometry" />
        </mxCell>
        <mxCell id="b10XOHRk4VMyjC0qILiY-231" value="NotificationBar.js" style="label;fontStyle=0;strokeColor=none;fillColor=none;align=left;verticalAlign=top;overflow=hidden;spacingLeft=28;spacingRight=4;rotatable=0;points=[[0,0.5],[1,0.5]];portConstraint=eastwest;imageWidth=16;imageHeight=16;whiteSpace=wrap;html=1;image=img/clipart/Gear_128x128.png" vertex="1" parent="b10XOHRk4VMyjC0qILiY-107">
          <mxGeometry x="270" y="1086" width="170" height="26" as="geometry" />
        </mxCell>
        <mxCell id="b10XOHRk4VMyjC0qILiY-232" value="PageSelector.js" style="label;fontStyle=0;strokeColor=none;fillColor=none;align=left;verticalAlign=top;overflow=hidden;spacingLeft=28;spacingRight=4;rotatable=0;points=[[0,0.5],[1,0.5]];portConstraint=eastwest;imageWidth=16;imageHeight=16;whiteSpace=wrap;html=1;image=img/clipart/Gear_128x128.png" vertex="1" parent="b10XOHRk4VMyjC0qILiY-107">
          <mxGeometry x="270" y="1112" width="170" height="26" as="geometry" />
        </mxCell>
        <mxCell id="b10XOHRk4VMyjC0qILiY-233" value="RoundingNumbericField.js" style="label;fontStyle=0;strokeColor=none;fillColor=none;align=left;verticalAlign=top;overflow=hidden;spacingLeft=28;spacingRight=4;rotatable=0;points=[[0,0.5],[1,0.5]];portConstraint=eastwest;imageWidth=16;imageHeight=16;whiteSpace=wrap;html=1;image=img/clipart/Gear_128x128.png" vertex="1" parent="b10XOHRk4VMyjC0qILiY-107">
          <mxGeometry x="270" y="1138" width="180" height="26" as="geometry" />
        </mxCell>
        <mxCell id="b10XOHRk4VMyjC0qILiY-234" value="SearchField.js" style="label;fontStyle=0;strokeColor=none;fillColor=none;align=left;verticalAlign=top;overflow=hidden;spacingLeft=28;spacingRight=4;rotatable=0;points=[[0,0.5],[1,0.5]];portConstraint=eastwest;imageWidth=16;imageHeight=16;whiteSpace=wrap;html=1;image=img/clipart/Gear_128x128.png" vertex="1" parent="b10XOHRk4VMyjC0qILiY-107">
          <mxGeometry x="270" y="1164" width="170" height="26" as="geometry" />
        </mxCell>
        <mxCell id="b10XOHRk4VMyjC0qILiY-235" value="SimpleDialog.js" style="label;fontStyle=0;strokeColor=none;fillColor=none;align=left;verticalAlign=top;overflow=hidden;spacingLeft=28;spacingRight=4;rotatable=0;points=[[0,0.5],[1,0.5]];portConstraint=eastwest;imageWidth=16;imageHeight=16;whiteSpace=wrap;html=1;image=img/clipart/Gear_128x128.png" vertex="1" parent="b10XOHRk4VMyjC0qILiY-107">
          <mxGeometry x="270" y="1190" width="180" height="26" as="geometry" />
        </mxCell>
        <mxCell id="b10XOHRk4VMyjC0qILiY-236" value="SimpleModal.js" style="label;fontStyle=0;strokeColor=none;fillColor=none;align=left;verticalAlign=top;overflow=hidden;spacingLeft=28;spacingRight=4;rotatable=0;points=[[0,0.5],[1,0.5]];portConstraint=eastwest;imageWidth=16;imageHeight=16;whiteSpace=wrap;html=1;image=img/clipart/Gear_128x128.png" vertex="1" parent="b10XOHRk4VMyjC0qILiY-107">
          <mxGeometry x="270" y="1216" width="170" height="26" as="geometry" />
        </mxCell>
        <mxCell id="b10XOHRk4VMyjC0qILiY-238" value="context" style="swimlane;rounded=0;shadow=0;glass=0;fillStyle=auto;strokeColor=#9673a6;align=center;verticalAlign=middle;fontFamily=Helvetica;fontSize=12;fontColor=default;startSize=23;fillColor=#e1d5e7;" vertex="1" parent="b10XOHRk4VMyjC0qILiY-100">
          <mxGeometry x="10" y="1380" width="560" height="660" as="geometry">
            <mxRectangle x="10" y="1380" width="80" height="30" as="alternateBounds" />
          </mxGeometry>
        </mxCell>
        <mxCell id="b10XOHRk4VMyjC0qILiY-242" value="cart" style="swimlane;rounded=0;shadow=0;glass=0;fillStyle=auto;strokeColor=#9673a6;align=center;verticalAlign=middle;fontFamily=Helvetica;fontSize=12;fontColor=default;startSize=23;fillColor=#e1d5e7;" vertex="1" parent="b10XOHRk4VMyjC0qILiY-238">
          <mxGeometry x="10" y="30" width="460" height="620" as="geometry">
            <mxRectangle x="10" y="1380" width="80" height="30" as="alternateBounds" />
          </mxGeometry>
        </mxCell>
        <mxCell id="b10XOHRk4VMyjC0qILiY-244" value="&lt;p style=&quot;margin:0px;margin-top:6px;text-align:center;&quot;&gt;&lt;b&gt;CartProvider&lt;/b&gt;&lt;br&gt;&lt;/p&gt;" style="align=left;overflow=fill;html=1;dropTarget=0;whiteSpace=wrap;fillColor=#dae8fc;strokeColor=#6c8ebf;" vertex="1" parent="b10XOHRk4VMyjC0qILiY-242">
          <mxGeometry x="10" y="30" width="230" height="30" as="geometry" />
        </mxCell>
        <mxCell id="b10XOHRk4VMyjC0qILiY-245" value="" style="shape=component;jettyWidth=8;jettyHeight=4;" vertex="1" parent="b10XOHRk4VMyjC0qILiY-244">
          <mxGeometry x="1" width="20" height="20" relative="1" as="geometry">
            <mxPoint x="-24" y="4" as="offset" />
          </mxGeometry>
        </mxCell>
        <mxCell id="b10XOHRk4VMyjC0qILiY-246" value="&lt;p style=&quot;margin:0px;margin-top:6px;text-align:center;&quot;&gt;&lt;b&gt;ComponentCartProvider&lt;/b&gt;&lt;br&gt;&lt;/p&gt;" style="align=left;overflow=fill;html=1;dropTarget=0;whiteSpace=wrap;fillColor=#dae8fc;strokeColor=#6c8ebf;" vertex="1" parent="b10XOHRk4VMyjC0qILiY-242">
          <mxGeometry x="10" y="70" width="230" height="30" as="geometry" />
        </mxCell>
        <mxCell id="b10XOHRk4VMyjC0qILiY-247" value="" style="shape=component;jettyWidth=8;jettyHeight=4;" vertex="1" parent="b10XOHRk4VMyjC0qILiY-246">
          <mxGeometry x="1" width="20" height="20" relative="1" as="geometry">
            <mxPoint x="-24" y="4" as="offset" />
          </mxGeometry>
        </mxCell>
        <mxCell id="b10XOHRk4VMyjC0qILiY-256" value="&lt;p style=&quot;margin:0px;margin-top:6px;text-align:center;&quot;&gt;&lt;b&gt;consumer&lt;/b&gt;&lt;br&gt;&lt;/p&gt;&lt;hr&gt;&lt;p style=&quot;margin:0px;margin-left:8px;&quot;&gt;&lt;br&gt;&lt;/p&gt;" style="align=left;overflow=fill;html=1;dropTarget=0;whiteSpace=wrap;fillColor=#dae8fc;strokeColor=#6c8ebf;" vertex="1" parent="b10XOHRk4VMyjC0qILiY-242">
          <mxGeometry x="10" y="110" width="440" height="420" as="geometry" />
        </mxCell>
        <mxCell id="b10XOHRk4VMyjC0qILiY-257" value="" style="shape=component;jettyWidth=8;jettyHeight=4;" vertex="1" parent="b10XOHRk4VMyjC0qILiY-256">
          <mxGeometry x="1" width="20" height="20" relative="1" as="geometry">
            <mxPoint x="-24" y="4" as="offset" />
          </mxGeometry>
        </mxCell>
        <mxCell id="b10XOHRk4VMyjC0qILiY-261" value="&lt;p style=&quot;line-height: 100%;&quot;&gt;CartActionButton&lt;/p&gt;" style="shape=module;align=left;spacingLeft=20;align=center;verticalAlign=top;whiteSpace=wrap;html=1;rounded=0;shadow=0;glass=0;fillStyle=auto;fontFamily=Helvetica;fontSize=12;startSize=23;" vertex="1" parent="b10XOHRk4VMyjC0qILiY-242">
          <mxGeometry x="20" y="150" width="200" height="50" as="geometry" />
        </mxCell>
        <mxCell id="b10XOHRk4VMyjC0qILiY-262" value="&lt;p style=&quot;line-height: 100%;&quot;&gt;CartDeliveryAddressSettings&lt;/p&gt;" style="shape=module;align=left;spacingLeft=20;align=center;verticalAlign=top;whiteSpace=wrap;html=1;rounded=0;shadow=0;glass=0;fillStyle=auto;fontFamily=Helvetica;fontSize=12;startSize=23;" vertex="1" parent="b10XOHRk4VMyjC0qILiY-242">
          <mxGeometry x="20" y="210" width="200" height="50" as="geometry" />
        </mxCell>
        <mxCell id="b10XOHRk4VMyjC0qILiY-264" value="&lt;p style=&quot;line-height: 100%;&quot;&gt;CartItemList&lt;/p&gt;" style="shape=module;align=left;spacingLeft=20;align=center;verticalAlign=top;whiteSpace=wrap;html=1;rounded=0;shadow=0;glass=0;fillStyle=auto;fontFamily=Helvetica;fontSize=12;startSize=23;" vertex="1" parent="b10XOHRk4VMyjC0qILiY-242">
          <mxGeometry x="20" y="270" width="200" height="50" as="geometry" />
        </mxCell>
        <mxCell id="b10XOHRk4VMyjC0qILiY-265" value="&lt;p style=&quot;line-height: 100%;&quot;&gt;CartPriceSummary&lt;/p&gt;" style="shape=module;align=left;spacingLeft=20;align=center;verticalAlign=top;whiteSpace=wrap;html=1;rounded=0;shadow=0;glass=0;fillStyle=auto;fontFamily=Helvetica;fontSize=12;startSize=23;" vertex="1" parent="b10XOHRk4VMyjC0qILiY-242">
          <mxGeometry x="20" y="330" width="200" height="50" as="geometry" />
        </mxCell>
        <mxCell id="b10XOHRk4VMyjC0qILiY-266" value="&lt;p style=&quot;line-height: 100%;&quot;&gt;CartTabComponent&lt;/p&gt;" style="shape=module;align=left;spacingLeft=20;align=center;verticalAlign=top;whiteSpace=wrap;html=1;rounded=0;shadow=0;glass=0;fillStyle=auto;fontFamily=Helvetica;fontSize=12;startSize=23;" vertex="1" parent="b10XOHRk4VMyjC0qILiY-242">
          <mxGeometry x="20" y="390" width="200" height="50" as="geometry" />
        </mxCell>
        <mxCell id="b10XOHRk4VMyjC0qILiY-267" value="&lt;p style=&quot;line-height: 100%;&quot;&gt;RAddress&lt;/p&gt;" style="shape=module;align=left;spacingLeft=20;align=center;verticalAlign=top;whiteSpace=wrap;html=1;rounded=0;shadow=0;glass=0;fillStyle=auto;fontFamily=Helvetica;fontSize=12;startSize=23;" vertex="1" parent="b10XOHRk4VMyjC0qILiY-242">
          <mxGeometry x="240" y="150" width="200" height="50" as="geometry" />
        </mxCell>
        <mxCell id="b10XOHRk4VMyjC0qILiY-268" value="&lt;p style=&quot;line-height: 100%;&quot;&gt;StepAddresses&lt;/p&gt;" style="shape=module;align=left;spacingLeft=20;align=center;verticalAlign=top;whiteSpace=wrap;html=1;rounded=0;shadow=0;glass=0;fillStyle=auto;fontFamily=Helvetica;fontSize=12;startSize=23;" vertex="1" parent="b10XOHRk4VMyjC0qILiY-242">
          <mxGeometry x="240" y="210" width="200" height="50" as="geometry" />
        </mxCell>
        <mxCell id="b10XOHRk4VMyjC0qILiY-269" value="&lt;p style=&quot;line-height: 100%;&quot;&gt;StepCartSummary&lt;/p&gt;" style="shape=module;align=left;spacingLeft=20;align=center;verticalAlign=top;whiteSpace=wrap;html=1;rounded=0;shadow=0;glass=0;fillStyle=auto;fontFamily=Helvetica;fontSize=12;startSize=23;" vertex="1" parent="b10XOHRk4VMyjC0qILiY-242">
          <mxGeometry x="240" y="270" width="200" height="50" as="geometry" />
        </mxCell>
        <mxCell id="b10XOHRk4VMyjC0qILiY-270" value="&lt;p style=&quot;line-height: 100%;&quot;&gt;StepOrderSent&lt;/p&gt;" style="shape=module;align=left;spacingLeft=20;align=center;verticalAlign=top;whiteSpace=wrap;html=1;rounded=0;shadow=0;glass=0;fillStyle=auto;fontFamily=Helvetica;fontSize=12;startSize=23;" vertex="1" parent="b10XOHRk4VMyjC0qILiY-242">
          <mxGeometry x="240" y="330" width="200" height="50" as="geometry" />
        </mxCell>
        <mxCell id="b10XOHRk4VMyjC0qILiY-271" value="&lt;p style=&quot;line-height: 100%;&quot;&gt;StepShippingAndPayment&lt;/p&gt;" style="shape=module;align=left;spacingLeft=20;align=center;verticalAlign=top;whiteSpace=wrap;html=1;rounded=0;shadow=0;glass=0;fillStyle=auto;fontFamily=Helvetica;fontSize=12;startSize=23;" vertex="1" parent="b10XOHRk4VMyjC0qILiY-242">
          <mxGeometry x="240" y="390" width="200" height="50" as="geometry" />
        </mxCell>
        <mxCell id="b10XOHRk4VMyjC0qILiY-272" value="&lt;p style=&quot;margin:0px;margin-top:6px;text-align:center;&quot;&gt;&lt;b&gt;CustomerQuoteCartProvider&lt;/b&gt;&lt;br&gt;&lt;/p&gt;" style="align=left;overflow=fill;html=1;dropTarget=0;whiteSpace=wrap;fillColor=#dae8fc;strokeColor=#6c8ebf;" vertex="1" parent="b10XOHRk4VMyjC0qILiY-242">
          <mxGeometry x="10" y="540" width="230" height="30" as="geometry" />
        </mxCell>
        <mxCell id="b10XOHRk4VMyjC0qILiY-273" value="" style="shape=component;jettyWidth=8;jettyHeight=4;" vertex="1" parent="b10XOHRk4VMyjC0qILiY-272">
          <mxGeometry x="1" width="20" height="20" relative="1" as="geometry">
            <mxPoint x="-24" y="4" as="offset" />
          </mxGeometry>
        </mxCell>
        <mxCell id="b10XOHRk4VMyjC0qILiY-274" value="&lt;p style=&quot;margin:0px;margin-top:6px;text-align:center;&quot;&gt;&lt;b&gt;ServiceRequestCartProvider&lt;/b&gt;&lt;br&gt;&lt;/p&gt;" style="align=left;overflow=fill;html=1;dropTarget=0;whiteSpace=wrap;fillColor=#dae8fc;strokeColor=#6c8ebf;" vertex="1" parent="b10XOHRk4VMyjC0qILiY-242">
          <mxGeometry x="10" y="580" width="230" height="30" as="geometry" />
        </mxCell>
        <mxCell id="b10XOHRk4VMyjC0qILiY-275" value="" style="shape=component;jettyWidth=8;jettyHeight=4;" vertex="1" parent="b10XOHRk4VMyjC0qILiY-274">
          <mxGeometry x="1" width="20" height="20" relative="1" as="geometry">
            <mxPoint x="-24" y="4" as="offset" />
          </mxGeometry>
        </mxCell>
        <mxCell id="b10XOHRk4VMyjC0qILiY-277" value="core" style="swimlane;rounded=0;shadow=0;glass=0;fillStyle=auto;strokeColor=#9673a6;align=center;verticalAlign=middle;fontFamily=Helvetica;fontSize=12;fontColor=default;startSize=23;fillColor=#e1d5e7;" vertex="1" parent="b10XOHRk4VMyjC0qILiY-100">
          <mxGeometry x="10" y="2060" width="560" height="100" as="geometry" />
        </mxCell>
        <mxCell id="b10XOHRk4VMyjC0qILiY-278" value="&lt;p style=&quot;margin:0px;margin-top:6px;text-align:center;&quot;&gt;&lt;b&gt;MuiPickersProvider&lt;/b&gt;&lt;br&gt;&lt;/p&gt;" style="align=left;overflow=fill;html=1;dropTarget=0;whiteSpace=wrap;fillColor=#dae8fc;strokeColor=#6c8ebf;" vertex="1" parent="b10XOHRk4VMyjC0qILiY-277">
          <mxGeometry x="10" y="30" width="230" height="30" as="geometry" />
        </mxCell>
        <mxCell id="b10XOHRk4VMyjC0qILiY-279" value="" style="shape=component;jettyWidth=8;jettyHeight=4;" vertex="1" parent="b10XOHRk4VMyjC0qILiY-278">
          <mxGeometry x="1" width="20" height="20" relative="1" as="geometry">
            <mxPoint x="-24" y="4" as="offset" />
          </mxGeometry>
        </mxCell>
        <mxCell id="b10XOHRk4VMyjC0qILiY-375" value="details" style="swimlane;rounded=0;shadow=0;glass=0;fillStyle=auto;strokeColor=#9673a6;align=center;verticalAlign=middle;fontFamily=Helvetica;fontSize=12;fontColor=default;startSize=23;fillColor=#e1d5e7;" vertex="1" parent="b10XOHRk4VMyjC0qILiY-100">
          <mxGeometry x="10" y="2180" width="560" height="330" as="geometry" />
        </mxCell>
        <mxCell id="b10XOHRk4VMyjC0qILiY-378" value="pages" style="swimlane;rounded=0;shadow=0;glass=0;fillStyle=auto;strokeColor=#9673a6;align=center;verticalAlign=middle;fontFamily=Helvetica;fontSize=12;fontColor=default;startSize=23;fillColor=#e1d5e7;" vertex="1" parent="b10XOHRk4VMyjC0qILiY-375">
          <mxGeometry x="10" y="30" width="240" height="220" as="geometry" />
        </mxCell>
        <mxCell id="b10XOHRk4VMyjC0qILiY-384" value="&lt;p style=&quot;margin:0px;margin-top:6px;text-align:center;&quot;&gt;&lt;b&gt;ServiceRequest&lt;/b&gt;&lt;br&gt;&lt;/p&gt;&lt;hr&gt;&lt;p style=&quot;margin:0px;margin-left:8px;&quot;&gt;&lt;br&gt;&lt;/p&gt;" style="align=left;overflow=fill;html=1;dropTarget=0;whiteSpace=wrap;fillColor=#dae8fc;strokeColor=#6c8ebf;" vertex="1" parent="b10XOHRk4VMyjC0qILiY-378">
          <mxGeometry x="5" y="130" width="230" height="60" as="geometry" />
        </mxCell>
        <mxCell id="b10XOHRk4VMyjC0qILiY-385" value="" style="shape=component;jettyWidth=8;jettyHeight=4;" vertex="1" parent="b10XOHRk4VMyjC0qILiY-384">
          <mxGeometry x="1" width="20" height="20" relative="1" as="geometry">
            <mxPoint x="-24" y="4" as="offset" />
          </mxGeometry>
        </mxCell>
        <mxCell id="b10XOHRk4VMyjC0qILiY-386" value="ServiceRequestDetailPage.js" style="label;fontStyle=0;strokeColor=none;fillColor=none;align=left;verticalAlign=top;overflow=hidden;spacingLeft=28;spacingRight=4;rotatable=0;points=[[0,0.5],[1,0.5]];portConstraint=eastwest;imageWidth=16;imageHeight=16;whiteSpace=wrap;html=1;image=img/clipart/Gear_128x128.png" vertex="1" parent="b10XOHRk4VMyjC0qILiY-378">
          <mxGeometry x="5" y="160" width="195" height="26" as="geometry" />
        </mxCell>
        <mxCell id="b10XOHRk4VMyjC0qILiY-388" value="UserDetail.js" style="label;fontStyle=0;strokeColor=none;fillColor=none;align=left;verticalAlign=top;overflow=hidden;spacingLeft=28;spacingRight=4;rotatable=0;points=[[0,0.5],[1,0.5]];portConstraint=eastwest;imageWidth=16;imageHeight=16;whiteSpace=wrap;html=1;image=img/clipart/Gear_128x128.png" vertex="1" parent="b10XOHRk4VMyjC0qILiY-378">
          <mxGeometry x="5" y="190" width="195" height="26" as="geometry" />
        </mxCell>
        <mxCell id="b10XOHRk4VMyjC0qILiY-379" value="&lt;p style=&quot;margin:0px;margin-top:6px;text-align:center;&quot;&gt;&lt;b&gt;customerQuote&lt;/b&gt;&lt;br&gt;&lt;/p&gt;&lt;hr&gt;&lt;p style=&quot;margin:0px;margin-left:8px;&quot;&gt;&lt;br&gt;&lt;/p&gt;" style="align=left;overflow=fill;html=1;dropTarget=0;whiteSpace=wrap;fillColor=#dae8fc;strokeColor=#6c8ebf;" vertex="1" parent="b10XOHRk4VMyjC0qILiY-375">
          <mxGeometry x="15" y="60" width="230" height="90" as="geometry" />
        </mxCell>
        <mxCell id="b10XOHRk4VMyjC0qILiY-380" value="" style="shape=component;jettyWidth=8;jettyHeight=4;" vertex="1" parent="b10XOHRk4VMyjC0qILiY-379">
          <mxGeometry x="1" width="20" height="20" relative="1" as="geometry">
            <mxPoint x="-24" y="4" as="offset" />
          </mxGeometry>
        </mxCell>
        <mxCell id="b10XOHRk4VMyjC0qILiY-381" value="CustomerQuoteDetailPage.js" style="label;fontStyle=0;strokeColor=none;fillColor=none;align=left;verticalAlign=top;overflow=hidden;spacingLeft=28;spacingRight=4;rotatable=0;points=[[0,0.5],[1,0.5]];portConstraint=eastwest;imageWidth=16;imageHeight=16;whiteSpace=wrap;html=1;image=img/clipart/Gear_128x128.png" vertex="1" parent="b10XOHRk4VMyjC0qILiY-375">
          <mxGeometry x="15" y="90" width="195" height="26" as="geometry" />
        </mxCell>
        <mxCell id="b10XOHRk4VMyjC0qILiY-382" value="CustomerQuotePriceSummary.js" style="label;fontStyle=0;strokeColor=none;fillColor=none;align=left;verticalAlign=top;overflow=hidden;spacingLeft=28;spacingRight=4;rotatable=0;points=[[0,0.5],[1,0.5]];portConstraint=eastwest;imageWidth=16;imageHeight=16;whiteSpace=wrap;html=1;image=img/clipart/Gear_128x128.png" vertex="1" parent="b10XOHRk4VMyjC0qILiY-375">
          <mxGeometry x="15" y="116" width="215" height="26" as="geometry" />
        </mxCell>
        <mxCell id="b10XOHRk4VMyjC0qILiY-389" value="updateInputs" style="swimlane;rounded=0;shadow=0;glass=0;fillStyle=auto;strokeColor=#9673a6;align=center;verticalAlign=middle;fontFamily=Helvetica;fontSize=12;fontColor=default;startSize=23;fillColor=#e1d5e7;" vertex="1" parent="b10XOHRk4VMyjC0qILiY-375">
          <mxGeometry x="270" y="30" width="240" height="220" as="geometry" />
        </mxCell>
        <mxCell id="b10XOHRk4VMyjC0qILiY-390" value="&lt;p style=&quot;margin:0px;margin-top:6px;text-align:center;&quot;&gt;&lt;b&gt;RadioGroupUpdateInput&lt;/b&gt;&lt;/p&gt;" style="align=left;overflow=fill;html=1;dropTarget=0;whiteSpace=wrap;fillColor=#dae8fc;strokeColor=#6c8ebf;" vertex="1" parent="b10XOHRk4VMyjC0qILiY-389">
          <mxGeometry x="5" y="30" width="230" height="30" as="geometry" />
        </mxCell>
        <mxCell id="b10XOHRk4VMyjC0qILiY-391" value="" style="shape=component;jettyWidth=8;jettyHeight=4;" vertex="1" parent="b10XOHRk4VMyjC0qILiY-390">
          <mxGeometry x="1" width="20" height="20" relative="1" as="geometry">
            <mxPoint x="-24" y="4" as="offset" />
          </mxGeometry>
        </mxCell>
        <mxCell id="b10XOHRk4VMyjC0qILiY-393" value="CheckboxUpdateInput.js" style="label;fontStyle=0;strokeColor=none;fillColor=none;align=left;verticalAlign=top;overflow=hidden;spacingLeft=28;spacingRight=4;rotatable=0;points=[[0,0.5],[1,0.5]];portConstraint=eastwest;imageWidth=16;imageHeight=16;whiteSpace=wrap;html=1;image=img/clipart/Gear_128x128.png" vertex="1" parent="b10XOHRk4VMyjC0qILiY-389">
          <mxGeometry x="5" y="60" width="195" height="26" as="geometry" />
        </mxCell>
        <mxCell id="b10XOHRk4VMyjC0qILiY-394" value="DateUpdateInput.js" style="label;fontStyle=0;strokeColor=none;fillColor=none;align=left;verticalAlign=top;overflow=hidden;spacingLeft=28;spacingRight=4;rotatable=0;points=[[0,0.5],[1,0.5]];portConstraint=eastwest;imageWidth=16;imageHeight=16;whiteSpace=wrap;html=1;image=img/clipart/Gear_128x128.png" vertex="1" parent="b10XOHRk4VMyjC0qILiY-389">
          <mxGeometry x="5" y="86" width="195" height="26" as="geometry" />
        </mxCell>
        <mxCell id="b10XOHRk4VMyjC0qILiY-395" value="NumberRoundingUpdateInput.js" style="label;fontStyle=0;strokeColor=none;fillColor=none;align=left;verticalAlign=top;overflow=hidden;spacingLeft=28;spacingRight=4;rotatable=0;points=[[0,0.5],[1,0.5]];portConstraint=eastwest;imageWidth=16;imageHeight=16;whiteSpace=wrap;html=1;image=img/clipart/Gear_128x128.png" vertex="1" parent="b10XOHRk4VMyjC0qILiY-389">
          <mxGeometry x="5" y="112" width="215" height="26" as="geometry" />
        </mxCell>
        <mxCell id="b10XOHRk4VMyjC0qILiY-396" value="SelectUpdateInput.js" style="label;fontStyle=0;strokeColor=none;fillColor=none;align=left;verticalAlign=top;overflow=hidden;spacingLeft=28;spacingRight=4;rotatable=0;points=[[0,0.5],[1,0.5]];portConstraint=eastwest;imageWidth=16;imageHeight=16;whiteSpace=wrap;html=1;image=img/clipart/Gear_128x128.png" vertex="1" parent="b10XOHRk4VMyjC0qILiY-389">
          <mxGeometry x="5" y="138" width="195" height="26" as="geometry" />
        </mxCell>
        <mxCell id="b10XOHRk4VMyjC0qILiY-397" value="TextFieldUpdateInput.js" style="label;fontStyle=0;strokeColor=none;fillColor=none;align=left;verticalAlign=top;overflow=hidden;spacingLeft=28;spacingRight=4;rotatable=0;points=[[0,0.5],[1,0.5]];portConstraint=eastwest;imageWidth=16;imageHeight=16;whiteSpace=wrap;html=1;image=img/clipart/Gear_128x128.png" vertex="1" parent="b10XOHRk4VMyjC0qILiY-389">
          <mxGeometry x="5" y="164" width="195" height="26" as="geometry" />
        </mxCell>
        <mxCell id="b10XOHRk4VMyjC0qILiY-398" value="DetailPageCreator.js" style="label;fontStyle=0;strokeColor=none;fillColor=none;align=left;verticalAlign=top;overflow=hidden;spacingLeft=28;spacingRight=4;rotatable=0;points=[[0,0.5],[1,0.5]];portConstraint=eastwest;imageWidth=16;imageHeight=16;whiteSpace=wrap;html=1;image=img/clipart/Gear_128x128.png" vertex="1" parent="b10XOHRk4VMyjC0qILiY-375">
          <mxGeometry x="10" y="250" width="195" height="26" as="geometry" />
        </mxCell>
        <mxCell id="b10XOHRk4VMyjC0qILiY-399" value="Form.js" style="label;fontStyle=0;strokeColor=none;fillColor=none;align=left;verticalAlign=top;overflow=hidden;spacingLeft=28;spacingRight=4;rotatable=0;points=[[0,0.5],[1,0.5]];portConstraint=eastwest;imageWidth=16;imageHeight=16;whiteSpace=wrap;html=1;image=img/clipart/Gear_128x128.png" vertex="1" parent="b10XOHRk4VMyjC0qILiY-375">
          <mxGeometry x="10" y="276" width="195" height="26" as="geometry" />
        </mxCell>
        <mxCell id="b10XOHRk4VMyjC0qILiY-400" value="QueriedDetail.js" style="label;fontStyle=0;strokeColor=none;fillColor=none;align=left;verticalAlign=top;overflow=hidden;spacingLeft=28;spacingRight=4;rotatable=0;points=[[0,0.5],[1,0.5]];portConstraint=eastwest;imageWidth=16;imageHeight=16;whiteSpace=wrap;html=1;image=img/clipart/Gear_128x128.png" vertex="1" parent="b10XOHRk4VMyjC0qILiY-375">
          <mxGeometry x="10" y="302" width="195" height="26" as="geometry" />
        </mxCell>
        <mxCell id="b10XOHRk4VMyjC0qILiY-401" value="layout" style="swimlane;rounded=0;shadow=0;glass=0;fillStyle=auto;strokeColor=#9673a6;align=center;verticalAlign=middle;fontFamily=Helvetica;fontSize=12;fontColor=default;startSize=23;fillColor=#e1d5e7;" vertex="1" parent="b10XOHRk4VMyjC0qILiY-100">
          <mxGeometry x="10" y="2530" width="560" height="330" as="geometry" />
        </mxCell>
        <mxCell id="b10XOHRk4VMyjC0qILiY-402" value="&lt;p style=&quot;margin:0px;margin-top:6px;text-align:center;&quot;&gt;&lt;b&gt;CommerceLayout&lt;/b&gt;&lt;br&gt;&lt;/p&gt;&lt;hr&gt;&lt;p style=&quot;margin:0px;margin-left:8px;&quot;&gt;&lt;br&gt;&lt;/p&gt;" style="align=left;overflow=fill;html=1;dropTarget=0;whiteSpace=wrap;rounded=0;shadow=0;glass=0;fillStyle=auto;verticalAlign=middle;fontFamily=Helvetica;fontSize=12;startSize=23;fillColor=#dae8fc;strokeColor=#6c8ebf;" vertex="1" parent="b10XOHRk4VMyjC0qILiY-401">
          <mxGeometry x="10" y="30" width="250" height="290" as="geometry" />
        </mxCell>
        <mxCell id="b10XOHRk4VMyjC0qILiY-403" value="" style="shape=component;jettyWidth=8;jettyHeight=4;rounded=0;shadow=0;glass=0;fillStyle=auto;align=center;verticalAlign=middle;fontFamily=Helvetica;fontSize=12;startSize=23;" vertex="1" parent="b10XOHRk4VMyjC0qILiY-402">
          <mxGeometry x="1" width="20" height="20" relative="1" as="geometry">
            <mxPoint x="-24" y="4" as="offset" />
          </mxGeometry>
        </mxCell>
        <mxCell id="b10XOHRk4VMyjC0qILiY-404" value="&lt;p style=&quot;margin:0px;margin-top:6px;text-align:center;&quot;&gt;&lt;b&gt;Header&lt;/b&gt;&lt;br&gt;&lt;/p&gt;&lt;hr&gt;&lt;p style=&quot;margin:0px;margin-left:8px;&quot;&gt;&lt;br&gt;&lt;/p&gt;" style="align=left;overflow=fill;html=1;dropTarget=0;whiteSpace=wrap;rounded=0;shadow=0;glass=0;fillStyle=auto;verticalAlign=middle;fontFamily=Helvetica;fontSize=12;startSize=23;" vertex="1" parent="b10XOHRk4VMyjC0qILiY-401">
          <mxGeometry x="20" y="70" width="230" height="140" as="geometry" />
        </mxCell>
        <mxCell id="b10XOHRk4VMyjC0qILiY-405" value="" style="shape=component;jettyWidth=8;jettyHeight=4;rounded=0;shadow=0;glass=0;fillStyle=auto;align=center;verticalAlign=middle;fontFamily=Helvetica;fontSize=12;startSize=23;" vertex="1" parent="b10XOHRk4VMyjC0qILiY-404">
          <mxGeometry x="1" width="20" height="20" relative="1" as="geometry">
            <mxPoint x="-24" y="4" as="offset" />
          </mxGeometry>
        </mxCell>
        <mxCell id="b10XOHRk4VMyjC0qILiY-406" value="AppSearch.js" style="label;fontStyle=0;strokeColor=none;fillColor=none;align=left;verticalAlign=top;overflow=hidden;spacingLeft=28;spacingRight=4;rotatable=0;points=[[0,0.5],[1,0.5]];portConstraint=eastwest;imageWidth=16;imageHeight=16;whiteSpace=wrap;html=1;image=img/clipart/Gear_128x128.png" vertex="1" parent="b10XOHRk4VMyjC0qILiY-401">
          <mxGeometry x="20" y="96" width="195" height="26" as="geometry" />
        </mxCell>
        <mxCell id="b10XOHRk4VMyjC0qILiY-407" value="CartButton.js" style="label;fontStyle=0;strokeColor=none;fillColor=none;align=left;verticalAlign=top;overflow=hidden;spacingLeft=28;spacingRight=4;rotatable=0;points=[[0,0.5],[1,0.5]];portConstraint=eastwest;imageWidth=16;imageHeight=16;whiteSpace=wrap;html=1;image=img/clipart/Gear_128x128.png" vertex="1" parent="b10XOHRk4VMyjC0qILiY-401">
          <mxGeometry x="20" y="122" width="195" height="26" as="geometry" />
        </mxCell>
        <mxCell id="b10XOHRk4VMyjC0qILiY-408" value="Header.js" style="label;fontStyle=0;strokeColor=none;fillColor=none;align=left;verticalAlign=top;overflow=hidden;spacingLeft=28;spacingRight=4;rotatable=0;points=[[0,0.5],[1,0.5]];portConstraint=eastwest;imageWidth=16;imageHeight=16;whiteSpace=wrap;html=1;image=img/clipart/Gear_128x128.png" vertex="1" parent="b10XOHRk4VMyjC0qILiY-401">
          <mxGeometry x="20" y="148" width="195" height="26" as="geometry" />
        </mxCell>
        <mxCell id="b10XOHRk4VMyjC0qILiY-409" value="UserDropdown.js" style="label;fontStyle=0;strokeColor=none;fillColor=none;align=left;verticalAlign=top;overflow=hidden;spacingLeft=28;spacingRight=4;rotatable=0;points=[[0,0.5],[1,0.5]];portConstraint=eastwest;imageWidth=16;imageHeight=16;whiteSpace=wrap;html=1;image=img/clipart/Gear_128x128.png" vertex="1" parent="b10XOHRk4VMyjC0qILiY-401">
          <mxGeometry x="20" y="174" width="195" height="26" as="geometry" />
        </mxCell>
        <mxCell id="b10XOHRk4VMyjC0qILiY-410" value="&lt;p style=&quot;margin:0px;margin-top:6px;text-align:center;&quot;&gt;&lt;b&gt;MenuBar&lt;/b&gt;&lt;/p&gt;&lt;p style=&quot;margin:0px;margin-left:8px;&quot;&gt;&lt;br&gt;&lt;/p&gt;" style="align=left;overflow=fill;html=1;dropTarget=0;whiteSpace=wrap;rounded=0;shadow=0;glass=0;fillStyle=auto;verticalAlign=middle;fontFamily=Helvetica;fontSize=12;startSize=23;" vertex="1" parent="b10XOHRk4VMyjC0qILiY-401">
          <mxGeometry x="20" y="220" width="230" height="30" as="geometry" />
        </mxCell>
        <mxCell id="b10XOHRk4VMyjC0qILiY-411" value="" style="shape=component;jettyWidth=8;jettyHeight=4;rounded=0;shadow=0;glass=0;fillStyle=auto;align=center;verticalAlign=middle;fontFamily=Helvetica;fontSize=12;startSize=23;" vertex="1" parent="b10XOHRk4VMyjC0qILiY-410">
          <mxGeometry x="1" width="20" height="20" relative="1" as="geometry">
            <mxPoint x="-24" y="4" as="offset" />
          </mxGeometry>
        </mxCell>
        <mxCell id="b10XOHRk4VMyjC0qILiY-416" value="&lt;p style=&quot;margin:0px;margin-top:6px;text-align:center;&quot;&gt;&lt;b&gt;SubMenuBar&lt;/b&gt;&lt;br&gt;&lt;/p&gt;" style="align=left;overflow=fill;html=1;dropTarget=0;whiteSpace=wrap;rounded=0;shadow=0;glass=0;fillStyle=auto;verticalAlign=middle;fontFamily=Helvetica;fontSize=12;startSize=23;" vertex="1" parent="b10XOHRk4VMyjC0qILiY-401">
          <mxGeometry x="20" y="260" width="230" height="30" as="geometry" />
        </mxCell>
        <mxCell id="b10XOHRk4VMyjC0qILiY-417" value="" style="shape=component;jettyWidth=8;jettyHeight=4;rounded=0;shadow=0;glass=0;fillStyle=auto;align=center;verticalAlign=middle;fontFamily=Helvetica;fontSize=12;startSize=23;" vertex="1" parent="b10XOHRk4VMyjC0qILiY-416">
          <mxGeometry x="1" width="20" height="20" relative="1" as="geometry">
            <mxPoint x="-24" y="4" as="offset" />
          </mxGeometry>
        </mxCell>
        <mxCell id="b10XOHRk4VMyjC0qILiY-418" value="CommerceLayout.js" style="label;fontStyle=0;strokeColor=none;fillColor=none;align=left;verticalAlign=top;overflow=hidden;spacingLeft=28;spacingRight=4;rotatable=0;points=[[0,0.5],[1,0.5]];portConstraint=eastwest;imageWidth=16;imageHeight=16;whiteSpace=wrap;html=1;image=img/clipart/Gear_128x128.png" vertex="1" parent="b10XOHRk4VMyjC0qILiY-401">
          <mxGeometry x="20" y="290" width="195" height="26" as="geometry" />
        </mxCell>
        <mxCell id="b10XOHRk4VMyjC0qILiY-419" value="&lt;p style=&quot;margin:0px;margin-top:6px;text-align:center;&quot;&gt;&lt;b&gt;LoginLayout&lt;/b&gt;&lt;br&gt;&lt;/p&gt;&lt;hr&gt;&lt;p style=&quot;margin:0px;margin-left:8px;&quot;&gt;&lt;br&gt;&lt;/p&gt;" style="align=left;overflow=fill;html=1;dropTarget=0;whiteSpace=wrap;rounded=0;shadow=0;glass=0;fillStyle=auto;verticalAlign=middle;fontFamily=Helvetica;fontSize=12;startSize=23;fillColor=#dae8fc;strokeColor=#6c8ebf;" vertex="1" parent="b10XOHRk4VMyjC0qILiY-401">
          <mxGeometry x="280" y="30" width="250" height="290" as="geometry" />
        </mxCell>
        <mxCell id="b10XOHRk4VMyjC0qILiY-420" value="" style="shape=component;jettyWidth=8;jettyHeight=4;rounded=0;shadow=0;glass=0;fillStyle=auto;align=center;verticalAlign=middle;fontFamily=Helvetica;fontSize=12;startSize=23;" vertex="1" parent="b10XOHRk4VMyjC0qILiY-419">
          <mxGeometry x="1" width="20" height="20" relative="1" as="geometry">
            <mxPoint x="-24" y="4" as="offset" />
          </mxGeometry>
        </mxCell>
        <mxCell id="b10XOHRk4VMyjC0qILiY-421" value="&lt;p style=&quot;margin:0px;margin-top:6px;text-align:center;&quot;&gt;&lt;b&gt;LocaleSwitcher&lt;/b&gt;&lt;/p&gt;&lt;p style=&quot;margin:0px;margin-left:8px;&quot;&gt;&lt;br&gt;&lt;/p&gt;" style="align=left;overflow=fill;html=1;dropTarget=0;whiteSpace=wrap;rounded=0;shadow=0;glass=0;fillStyle=auto;verticalAlign=middle;fontFamily=Helvetica;fontSize=12;startSize=23;" vertex="1" parent="b10XOHRk4VMyjC0qILiY-401">
          <mxGeometry x="290" y="70" width="230" height="30" as="geometry" />
        </mxCell>
        <mxCell id="b10XOHRk4VMyjC0qILiY-422" value="" style="shape=component;jettyWidth=8;jettyHeight=4;rounded=0;shadow=0;glass=0;fillStyle=auto;align=center;verticalAlign=middle;fontFamily=Helvetica;fontSize=12;startSize=23;" vertex="1" parent="b10XOHRk4VMyjC0qILiY-421">
          <mxGeometry x="1" width="20" height="20" relative="1" as="geometry">
            <mxPoint x="-24" y="4" as="offset" />
          </mxGeometry>
        </mxCell>
        <mxCell id="b10XOHRk4VMyjC0qILiY-431" value="LoginLayout.tsx" style="label;fontStyle=0;strokeColor=none;fillColor=none;align=left;verticalAlign=top;overflow=hidden;spacingLeft=28;spacingRight=4;rotatable=0;points=[[0,0.5],[1,0.5]];portConstraint=eastwest;imageWidth=16;imageHeight=16;whiteSpace=wrap;html=1;image=img/clipart/Gear_128x128.png" vertex="1" parent="b10XOHRk4VMyjC0qILiY-401">
          <mxGeometry x="290" y="100" width="195" height="26" as="geometry" />
        </mxCell>
        <mxCell id="b10XOHRk4VMyjC0qILiY-432" value="LoginLayoutContainer.tsx" style="label;fontStyle=0;strokeColor=none;fillColor=none;align=left;verticalAlign=top;overflow=hidden;spacingLeft=28;spacingRight=4;rotatable=0;points=[[0,0.5],[1,0.5]];portConstraint=eastwest;imageWidth=16;imageHeight=16;whiteSpace=wrap;html=1;image=img/clipart/Gear_128x128.png" vertex="1" parent="b10XOHRk4VMyjC0qILiY-401">
          <mxGeometry x="290" y="127" width="195" height="26" as="geometry" />
        </mxCell>
        <mxCell id="b10XOHRk4VMyjC0qILiY-433" value="lists" style="swimlane;rounded=0;shadow=0;glass=0;fillStyle=auto;strokeColor=#9673a6;align=center;verticalAlign=middle;fontFamily=Helvetica;fontSize=12;fontColor=default;startSize=23;fillColor=#e1d5e7;" vertex="1" parent="b10XOHRk4VMyjC0qILiY-100">
          <mxGeometry x="10" y="2880" width="560" height="230" as="geometry" />
        </mxCell>
      </root>
    </mxGraphModel>
  </diagram>
</mxfile>
